<svg t="1725523917224" class="icon" viewBox="0 0 1024 1024" version="1.1" xmlns="http://www.w3.org/2000/svg" p-id="7268" width="16" height="16">
    <path
        d="M847.936 1024H176.032A176.256 176.256 0 0 1 0 847.936V176.032A176.256 176.256 0 0 1 176.032 0h671.904A176.256 176.256 0 0 1 1024 176.032v671.904A176.256 176.256 0 0 1 847.936 1024zM176.032 96A80.128 80.128 0 0 0 96 176.032v671.904A80.128 80.128 0 0 0 176.032 928h671.904A80.128 80.128 0 0 0 928 847.936V176.032A80.128 80.128 0 0 0 847.936 96H176.032z"
        p-id="7269" fill="#000000"></path>
    <path d="M297.792 274.656a57.6 57.6 0 1 1-115.2 0 57.6 57.6 0 0 1 115.2 0zM795.328 322.656H404.512a48 48 0 1 1 0-96h390.784a48 48 0 0 1 0.032 96z"
        p-id="7270" fill="#000000"></path>
    <path d="M240.192 509.44m-57.6 0a57.6 57.6 0 1 0 115.2 0 57.6 57.6 0 1 0-115.2 0Z" p-id="7271" fill="#000000"></path>
    <path d="M795.328 557.44H404.512a48 48 0 1 1 0-96h390.784a48 48 0 0 1 0.032 96z" p-id="7272" fill="#000000"></path>
    <path d="M240.192 744.224m-57.6 0a57.6 57.6 0 1 0 115.2 0 57.6 57.6 0 1 0-115.2 0Z" p-id="7273" fill="#000000"></path>
    <path d="M795.328 792.256H404.512a48 48 0 1 1 0-96h390.784a48 48 0 0 1 0.032 96z" p-id="7274" fill="#000000"></path>
</svg>