<?xml version="1.0" standalone="no"?><!DOCTYPE svg PUBLIC "-//W3C//DTD SVG 1.1//EN" "http://www.w3.org/Graphics/SVG/1.1/DTD/svg11.dtd"><svg t="1725956737397" class="icon" viewBox="0 0 2048 1024" version="1.1" xmlns="http://www.w3.org/2000/svg" p-id="12848" xmlns:xlink="http://www.w3.org/1999/xlink" width="48" height="24"><path d="M50.005333 512L199.111111 661.105778V910.222222A85.333333 85.333333 0 0 0 284.444444 995.555556h1649.777778a85.333333 85.333333 0 0 0 85.333334-85.333334V113.777778A85.333333 85.333333 0 0 0 1934.222222 28.444444H284.444444A85.333333 85.333333 0 0 0 199.111111 113.777778v249.116444L50.005333 512z" fill="#F2785A" p-id="12849"></path><path d="M612.238222 682.666667V275.456h55.239111l213.902223 319.715556v-319.715556h51.655111V682.666667h-55.239111l-213.902223-320V682.666667h-51.655111z m606.947556-95.004445l51.655111 6.371556c-8.135111 30.208-23.267556 53.646222-45.283556 70.314666-22.016 16.668444-50.176 25.031111-84.423111 25.031112-43.178667 0-77.368889-13.312-102.684444-39.879112-25.258667-26.624-37.888-63.886222-37.888-111.843555 0-49.607111 12.743111-88.177778 38.343111-115.541333 25.543111-27.420444 58.709333-41.130667 99.441778-41.130667 39.424 0 71.68 13.425778 96.654222 40.277333 22.755556 24.462222 35.100444 57.856 37.205333 100.352l0.284445 12.970667c0 3.015111-0.056889 7.395556-0.284445 13.368889h-219.989333c1.877333 32.426667 11.036444 57.230222 27.477333 74.410666 16.497778 17.237333 37.091556 25.884444 61.667556 25.884445 18.375111 0 34.019556-4.835556 46.990222-14.449778 12.970667-9.671111 23.210667-25.031111 30.833778-46.08z m-164.181334-80.782222h164.693334c-2.218667-24.860444-8.533333-43.463111-18.887111-55.864889a76.629333 76.629333 0 0 0-61.895111-28.899555c-22.983111 0-42.268444 7.68-57.969778 23.04-15.644444 15.36-24.291556 35.953778-25.941334 61.667555zM1388.032 682.666667l-90.225778-295.025778h51.655111l64.455111 233.642667 15.246223-60.871112 46.933333-172.771555h51.427556l44.145777 171.121778 14.734223 56.376889 67.470222-227.498667h48.64L1610.296889 682.666667h-51.939556l-46.990222-176.64-11.377778-50.289778L1440.256 682.666667H1388.088889z" fill="#FFFFFF" p-id="12850"></path></svg>