<?xml version="1.0" standalone="no"?><!DOCTYPE svg PUBLIC "-//W3C//DTD SVG 1.1//EN" "http://www.w3.org/Graphics/SVG/1.1/DTD/svg11.dtd"><svg t="1725591201109" class="icon" viewBox="0 0 1024 1024" version="1.1" xmlns="http://www.w3.org/2000/svg" p-id="7158" width="24" height="24" xmlns:xlink="http://www.w3.org/1999/xlink"><path d="M608.7552 459.4944h128.96l128.9088 128.9472-128.9088 136.704H608.7552v64.9984a96.6912 96.6912 0 1 1-193.3696 0v-64.9984H157.4912V459.4944h257.8944v-59.5456H286.4128L157.4912 266.0992l128.9216-128.9216h580.2112v262.7712H608.7552v59.5456zM479.808 790.144a32.2432 32.2432 0 0 0 64.4736 0v-64.9984h-64.4736v64.9984zM221.9392 523.9808v139.6608h489.0624l64.4864-75.1744-64.4864-64.4864H221.9392z m257.8688-64.4864h64.4736v-59.5456h-64.4736v59.5456z m322.368-119.04V201.6384H313.1136l-64.4608 64.4608 64.4608 74.4064h102.272v-0.7808h193.3696v0.7808H802.176z" p-id="7159" fill="#ff6a00"></path></svg>