<?xml version="1.0" standalone="no"?><!DOCTYPE svg PUBLIC "-//W3C//DTD SVG 1.1//EN" "http://www.w3.org/Graphics/SVG/1.1/DTD/svg11.dtd"><svg t="1727249423062" class="icon" viewBox="0 0 1024 1024" version="1.1" xmlns="http://www.w3.org/2000/svg" p-id="16788" xmlns:xlink="http://www.w3.org/1999/xlink" width="128" height="128"><path d="M620.606061 684.900848H548.739879V449.939394a7.757576 7.757576 0 0 0-7.757576-7.757576H482.831515a7.757576 7.757576 0 0 0-7.757576 7.757576v234.961454H403.393939a7.757576 7.757576 0 0 0-6.081939 12.536243l108.606061 137.402182c3.10303 3.971879 9.060848 3.971879 12.163878 0l108.606061-137.402182a7.757576 7.757576 0 0 0-6.081939-12.536243z" fill="#d4237a" p-id="16789"></path><path d="M802.319515 355.607273A310.427152 310.427152 0 0 0 512.186182 155.151515a310.30303 310.30303 0 0 0-290.133334 200.331637 194.001455 194.001455 0 0 0 49.338182 381.486545h38.912a7.757576 7.757576 0 0 0 7.757576-7.757576v-58.150788a7.757576 7.757576 0 0 0-7.757576-7.757575h-38.912a120.211394 120.211394 0 0 1-94.766545-194.311758c16.259879-20.728242 38.912-35.746909 64.170667-42.449455l36.739878-9.557333 13.467152-35.498667a238.188606 238.188606 0 0 1 85.457454-109.847272 234.775273 234.775273 0 0 1 135.726546-42.883879c49.027879 0 95.883636 14.832485 135.788606 42.821818a238.312727 238.312727 0 0 1 85.395394 109.847273l13.405091 35.436606 36.615757 9.681454c52.565333 14.211879 89.367273 61.998545 89.367273 116.487758 0 32.085333-12.536242 62.370909-35.250424 85.02303a119.342545 119.342545 0 0 1-84.898909 35.250425h-38.912a7.757576 7.757576 0 0 0-7.757576 7.757575v58.150788c0 4.282182 3.475394 7.757576 7.757576 7.757576h38.912a193.877333 193.877333 0 0 0 49.710545-381.362424z" fill="#d4237a" p-id="16790"></path></svg>