<?xml version="1.0" standalone="no"?><!DOCTYPE svg PUBLIC "-//W3C//DTD SVG 1.1//EN" "http://www.w3.org/Graphics/SVG/1.1/DTD/svg11.dtd"><svg t="1727356206819" class="icon" viewBox="0 0 1024 1024" version="1.1" xmlns="http://www.w3.org/2000/svg" p-id="5176" xmlns:xlink="http://www.w3.org/1999/xlink" width="128" height="128"><path d="M511.998 0C310.422 0 146.432 164.016 146.432 365.62c0 92.546 34.116 179.678 96.452 247.328h-0.06l1.37 1.412a371.458 371.458 0 0 0 10.158 10.496L511.948 890.96l255.402-263.822c71.11-69.42 110.274-162.294 110.274-261.518C877.624 164.016 713.602 0 511.998 0z m244.474 616.308L511.948 868.89 279.05 628.298h0.674l-13.35-13.144c-67.448-66.402-104.592-155.02-104.592-249.534 0-193.14 157.106-350.272 350.216-350.272 193.14 0 350.276 157.13 350.276 350.272 0 95.054-37.52 184.03-105.802 250.688z" fill="#4A555F" p-id="5177"></path><path d="M511.998 161.218c-99.556 0-180.554 80.998-180.554 180.56 0 99.56 80.998 180.56 180.554 180.56 99.59 0 180.614-80.998 180.614-180.56s-81.024-180.56-180.614-180.56z m0 345.77c-91.096 0-165.206-74.114-165.206-165.21s74.108-165.21 165.206-165.21c91.126 0 165.264 74.114 165.264 165.21s-74.138 165.21-165.264 165.21z" fill="#4A555F" p-id="5178"></path><path d="M512 33.256c-183.238 0-332.314 149.098-332.314 332.364 0 89.678 35.246 173.766 99.252 236.772l44.448 43.812h-2.084l190.648 196.94L744.118 603.34c64.646-63.106 100.246-147.53 100.246-237.722 0-183.264-149.096-332.362-332.364-332.362z m0 506.988c-109.434 0-198.466-89.034-198.466-198.468 0-109.434 89.032-198.464 198.466-198.464 109.464 0 198.516 89.03 198.516 198.464S621.464 540.244 512 540.244z" fill="#71CCE0" p-id="5179"></path><path d="M837.78 526.516l-1.828-5.202h-10.178l-2.138 4.168c-17.252 33.564-39.808 64.076-67.184 90.836L511.942 868.876 279.01 628.31h0.7l-13.37-13.148c-26.766-26.312-48.96-56.484-65.968-89.672l-8.254-16.112L16.778 1024h990.446L837.78 526.516zM195.158 548.034a363.36 363.36 0 0 0 47.692 64.928h-0.064l1.55 1.602c3.182 3.418 6.44 6.78 9.768 10.086l257.84 266.292 255.392-263.794c24.174-23.628 44.818-50.208 61.532-79.194l156.91 460.7H38.222l156.936-460.62z" fill="#4A555F" p-id="5180"></path><path d="M790.78 628.832a392.326 392.326 0 0 1-10.648 10.854L511.95 916.704 241.482 637.306a380.932 380.932 0 0 1-8.224-8.446L128.402 947.872h767.246l-104.868-319.04z" fill="#FFD452" p-id="5181"></path><path d="M223.91 971.592l74.902-305.944 14.91 3.652-74.902 305.94zM362.92 972.372l30.336-208.336 15.192 2.212-30.338 208.336zM711.2 669.33l14.908-3.652 74.966 305.94-14.91 3.652zM616.472 766.192l15.188-2.214 30.36 208.316-15.19 2.214zM504.338 879.926h15.35v93.53h-15.35z" fill="#4A555F" p-id="5182"></path><path d="M138.462 827.628h330.29v15.35H138.462zM553.478 827.628h330.296v15.35H553.478zM693.776 684.416h144.72v15.35h-144.72zM185.534 684.416h144.174v15.35H185.534z" fill="#4A555F" p-id="5183"></path><path d="M531.146 860.224l-19.186 19.808-19.186-19.808c-27.128 4.104-46.938 16.688-46.938 31.678 0 18.202 29.628 33.014 66.126 33.012 36.498 0 66.124-14.814 66.124-33.016 0-14.988-19.81-27.57-46.94-31.674z" fill="#F58E6F" p-id="5184"></path><path d="M808.012 574.738l-1.784-5.278h-9.438l-2.298 3.128a358.256 358.256 0 0 1-38.018 43.722l-244.526 252.58-232.898-240.592h0.664l-13.34-13.144a351.636 351.636 0 0 1-36.8-42.556l-2.354-3.14h-9.448L82.462 981.128h859.128l-133.578-406.39z m-581.92 18.572a366.232 366.232 0 0 0 16.814 19.638h-0.08l1.828 1.886a362.65 362.65 0 0 0 9.684 10.002L511.948 890.96l255.408-263.826a373.098 373.098 0 0 0 30.598-33.844l122.43 372.488H103.666l122.426-372.468z" fill="#4A555F" p-id="5185"></path></svg>