<?xml version="1.0" standalone="no"?><!DOCTYPE svg PUBLIC "-//W3C//DTD SVG 1.1//EN" "http://www.w3.org/Graphics/SVG/1.1/DTD/svg11.dtd"><svg t="1727249062863" class="icon" viewBox="0 0 1024 1024" version="1.1" xmlns="http://www.w3.org/2000/svg" p-id="7882" xmlns:xlink="http://www.w3.org/1999/xlink" width="128" height="128"><path d="M157.538462 131.282051h656.410256v236.307693H157.538462z" fill="#ff6a00" p-id="7883"></path><path d="M710.866051 843.145846a118.180103 118.180103 0 0 0 232.421744 2.730667 13.128205 13.128205 0 0 1 25.783795 5.014974 144.436513 144.436513 0 0 1-258.78318 56.897641v18.615795a13.128205 13.128205 0 0 1-26.25641 0v-78.769231c0-1.837949 0.393846-3.597128 1.050256-5.198769a13.128205 13.128205 0 0 1 25.783795 0.708923zM781.128205 105.025641a72.205128 72.205128 0 0 1 72.205128 72.205128v452.765539a19.692308 19.692308 0 1 1-39.384615 0V597.333333h-183.794872v98.461539a13.128205 13.128205 0 1 1-26.25641 0v-98.461539h-210.051282V787.692308h227.826872a19.692308 19.692308 0 0 1 0 39.384615H203.487179A72.205128 72.205128 0 0 1 131.282051 754.871795v-577.641026A72.205128 72.205128 0 0 1 203.487179 105.025641h577.641026z m43.533128 577.641026c47.76041 0 90.610872 23.341949 117.024821 59.759589v-18.642051a13.128205 13.128205 0 0 1 26.25641 0v78.769231c0 1.837949-0.393846 3.597128-1.050256 5.198769a13.128205 13.128205 0 0 1-25.783795-0.682667 118.180103 118.180103 0 0 0-232.421744-2.756923 13.128205 13.128205 0 0 1-25.783795-4.988718A144.436513 144.436513 0 0 1 824.661333 682.666667zM367.589744 597.333333H170.666667v157.538462c0 18.116923 14.70359 32.820513 32.820512 32.820513H367.589744v-190.358975z m0-236.307692H170.666667v210.051282H367.589744v-210.051282z m236.307692 0h-210.051282v210.051282h210.051282v-210.051282z m210.051282 0h-183.794872v210.051282h183.794872v-210.051282zM781.128205 144.410256h-577.641026c-18.116923 0-32.820513 14.70359-32.820512 32.820513v157.538462H813.948718v-157.538462c0-18.116923-14.70359-32.820513-32.820513-32.820513z" fill="#ff6a00" p-id="7884"></path></svg>